HIERARCHY
ROOT Root
{
  OFFSET 0.0 0.0 0.0
  CHANNELS 6 Xposition Yposition Zposition Zrotation Yrotation Xrotation
  JOINT Hips
  {
    OFFSET 0.0 100.0 0.0
    CHANNELS 6 Xposition Yposition Zposition Zrotation Yrotation Xrotation
    JOINT Spine1
    {
      OFFSET 5.003913 -0.037094 -0.013727
      CHANNELS 3 Zrotation Yrotation Xrotation
      JOINT Spine2
      {
        OFFSET 7.125363 -1e-06 0.0
        CHANNELS 3 Zrotation Yrotation Xrotation
        JOINT Chest
        {
          OFFSET 7.594027 1e-06 0.0
          CHANNELS 3 Zrotation Yrotation Xrotation
          JOINT Neck1
          {
            OFFSET 26.313086 -0.460272 -0.181672
            CHANNELS 3 Zrotation Yrotation Xrotation
            JOINT Neck2
            {
              OFFSET 8.045911 0.0 0.0
              CHANNELS 3 Zrotation Yrotation Xrotation
              JOINT Head
              {
                OFFSET 6.432774 0.0 0.0
                CHANNELS 3 Zrotation Yrotation Xrotation
                JOINT HeadEnd
                {
                  OFFSET 16.169773 0.06451 0.00362
                  CHANNELS 3 Zrotation Yrotation Xrotation
                }
                JOINT Jaw
                {
                  OFFSET 0.108741 3.12938 0.002639
                  CHANNELS 3 Zrotation Yrotation Xrotation
                }
                JOINT LeftEye
                {
                  OFFSET 4.45173 8.166359 3.206392
                  CHANNELS 3 Zrotation Yrotation Xrotation
                }
                JOINT RightEye
                {
                  OFFSET 4.436895 8.135758 -3.222429
                  CHANNELS 3 Zrotation Yrotation Xrotation
                }
              }
            }
          }
          JOINT LeftShoulder
          {
            OFFSET 23.218927 5.195579 1.621656
            CHANNELS 3 Zrotation Yrotation Xrotation
            JOINT LeftArm
            {
              OFFSET 15.902118 2e-06 -2e-06
              CHANNELS 3 Zrotation Yrotation Xrotation
              JOINT LeftForeArm
              {
                OFFSET 28.739307 0.0 -1e-06
                CHANNELS 3 Zrotation Yrotation Xrotation
                JOINT LeftHand
                {
                  OFFSET 27.093981 -4e-06 0.0
                  CHANNELS 3 Zrotation Yrotation Xrotation
                  JOINT LeftHandThumb1
                  {
                    OFFSET 2.276781 3.380274 0.83384
                    CHANNELS 3 Zrotation Yrotation Xrotation
                    JOINT LeftHandThumb2
                    {
                      OFFSET 4.705309 -1e-06 -1e-06
                      CHANNELS 3 Zrotation Yrotation Xrotation
                      JOINT LeftHandThumb3
                      {
                        OFFSET 2.798515 0.0 3e-06
                        CHANNELS 3 Zrotation Yrotation Xrotation
                        JOINT LeftHandThumbEnd
                        {
                          OFFSET 3.180793 4e-06 -4e-06
                          CHANNELS 3 Zrotation Yrotation Xrotation
                        }
                      }
                    }
                  }
                  JOINT LeftHandIndex1
                  {
                    OFFSET 3.247786 2.352677 0.137192
                    CHANNELS 3 Zrotation Yrotation Xrotation
                    JOINT LeftHandIndex2
                    {
                      OFFSET 6.367095 1e-06 0.0
                      CHANNELS 3 Zrotation Yrotation Xrotation
                      JOINT LeftHandIndex3
                      {
                        OFFSET 3.662364 0.0 0.0
                        CHANNELS 3 Zrotation Yrotation Xrotation
                        JOINT LeftHandIndex4
                        {
                          OFFSET 2.329242 4e-06 -4e-06
                          CHANNELS 3 Zrotation Yrotation Xrotation
                          JOINT LeftHandIndexEnd
                          {
                            OFFSET 2.767823 1e-06 0.0
                            CHANNELS 3 Zrotation Yrotation Xrotation
                          }
                        }
                      }
                    }
                  }
                  JOINT LeftHandMiddle1
                  {
                    OFFSET 3.163612 0.945023 -0.406112
                    CHANNELS 3 Zrotation Yrotation Xrotation
                    JOINT LeftHandMiddle2
                    {
                      OFFSET 6.276789 3e-06 0.0
                      CHANNELS 3 Zrotation Yrotation Xrotation
                      JOINT LeftHandMiddle3
                      {
                        OFFSET 4.35652 -1e-06 4e-06
                        CHANNELS 3 Zrotation Yrotation Xrotation
                        JOINT LeftHandMiddle4
                        {
                          OFFSET 2.996877 0.0 8e-06
                          CHANNELS 3 Zrotation Yrotation Xrotation
                          JOINT LeftHandMiddleEnd
                          {
                            OFFSET 2.323256 3e-06 -4e-06
                            CHANNELS 3 Zrotation Yrotation Xrotation
                          }
                        }
                      }
                    }
                  }
                  JOINT LeftHandRing1
                  {
                    OFFSET 2.882606 -0.309162 0.107445
                    CHANNELS 3 Zrotation Yrotation Xrotation
                    JOINT LeftHandRing2
                    {
                      OFFSET 6.033198 0.0 4e-06
                      CHANNELS 3 Zrotation Yrotation Xrotation
                      JOINT LeftHandRing3
                      {
                        OFFSET 4.350578 3e-06 0.0
                        CHANNELS 3 Zrotation Yrotation Xrotation
                        JOINT LeftHandRing4
                        {
                          OFFSET 2.651321 2e-06 -7e-06
                          CHANNELS 3 Zrotation Yrotation Xrotation
                          JOINT LeftHandRingEnd
                          {
                            OFFSET 1.937663 1e-06 -4e-06
                            CHANNELS 3 Zrotation Yrotation Xrotation
                          }
                        }
                      }
                    }
                  }
                  JOINT LeftHandPinky1
                  {
                    OFFSET 2.865315 -1.525436 0.575687
                    CHANNELS 3 Zrotation Yrotation Xrotation
                    JOINT LeftHandPinky2
                    {
                      OFFSET 5.54936 1e-06 -8e-06
                      CHANNELS 3 Zrotation Yrotation Xrotation
                      JOINT LeftHandPinky3
                      {
                        OFFSET 3.070974 0.0 -4e-06
                        CHANNELS 3 Zrotation Yrotation Xrotation
                        JOINT LeftHandPinky4
                        {
                          OFFSET 1.549672 1e-06 0.0
                          CHANNELS 3 Zrotation Yrotation Xrotation
                          JOINT LeftHandPinkyEnd
                          {
                            OFFSET 1.952123 0.0 0.0
                            CHANNELS 3 Zrotation Yrotation Xrotation
                          }
                        }
                      }
                    }
                  }
                }
              }
            }
          }
          JOINT RightShoulder
          {
            OFFSET 23.161716 5.296122 -1.380114
            CHANNELS 3 Zrotation Yrotation Xrotation
            JOINT RightArm
            {
              OFFSET -16.027195 -2e-06 1.1e-05
              CHANNELS 3 Zrotation Yrotation Xrotation
              JOINT RightForeArm
              {
                OFFSET -28.736639 4e-06 2e-06
                CHANNELS 3 Zrotation Yrotation Xrotation
                JOINT RightHand
                {
                  OFFSET -27.133619 6e-06 0.0
                  CHANNELS 3 Zrotation Yrotation Xrotation
                  JOINT RightHandThumb1
                  {
                    OFFSET -2.274328 -3.351035 -0.83067
                    CHANNELS 3 Zrotation Yrotation Xrotation
                    JOINT RightHandThumb2
                    {
                      OFFSET -4.703594 -3e-06 2e-06
                      CHANNELS 3 Zrotation Yrotation Xrotation
                      JOINT RightHandThumb3
                      {
                        OFFSET -2.794935 -4e-06 -3e-06
                        CHANNELS 3 Zrotation Yrotation Xrotation
                        JOINT RightHandThumbEnd
                        {
                          OFFSET -3.183852 4e-06 1e-06
                          CHANNELS 3 Zrotation Yrotation Xrotation
                        }
                      }
                    }
                  }
                  JOINT RightHandIndex1
                  {
                    OFFSET -3.253496 -2.33755 -0.127667
                    CHANNELS 3 Zrotation Yrotation Xrotation
                    JOINT RightHandIndex2
                    {
                      OFFSET -6.344434 0.0 0.0
                      CHANNELS 3 Zrotation Yrotation Xrotation
                      JOINT RightHandIndex3
                      {
                        OFFSET -3.654871 0.0 -8e-06
                        CHANNELS 3 Zrotation Yrotation Xrotation
                        JOINT RightHandIndex4
                        {
                          OFFSET -2.327586 -1e-06 0.0
                          CHANNELS 3 Zrotation Yrotation Xrotation
                          JOINT RightHandIndexEnd
                          {
                            OFFSET -2.770001 3e-06 8e-06
                            CHANNELS 3 Zrotation Yrotation Xrotation
                          }
                        }
                      }
                    }
                  }
                  JOINT RightHandMiddle1
                  {
                    OFFSET -3.168223 -0.944764 0.411762
                    CHANNELS 3 Zrotation Yrotation Xrotation
                    JOINT RightHandMiddle2
                    {
                      OFFSET -6.266691 -1e-06 -4e-06
                      CHANNELS 3 Zrotation Yrotation Xrotation
                      JOINT RightHandMiddle3
                      {
                        OFFSET -4.348901 0.0 0.0
                        CHANNELS 3 Zrotation Yrotation Xrotation
                        JOINT RightHandMiddle4
                        {
                          OFFSET -3.00024 2e-06 -4e-06
                          CHANNELS 3 Zrotation Yrotation Xrotation
                          JOINT RightHandMiddleEnd
                          {
                            OFFSET -2.321477 -4e-06 -4e-06
                            CHANNELS 3 Zrotation Yrotation Xrotation
                          }
                        }
                      }
                    }
                  }
                  JOINT RightHandRing1
                  {
                    OFFSET -2.885654 0.293261 -0.119232
                    CHANNELS 3 Zrotation Yrotation Xrotation
                    JOINT RightHandRing2
                    {
                      OFFSET -6.032835 -1e-06 -4e-06
                      CHANNELS 3 Zrotation Yrotation Xrotation
                      JOINT RightHandRing3
                      {
                        OFFSET -4.33881 0.0 -4e-06
                        CHANNELS 3 Zrotation Yrotation Xrotation
                        JOINT RightHandRing4
                        {
                          OFFSET -2.654903 -4e-06 -4e-06
                          CHANNELS 3 Zrotation Yrotation Xrotation
                          JOINT RightHandRingEnd
                          {
                            OFFSET -1.935122 0.0 4e-06
                            CHANNELS 3 Zrotation Yrotation Xrotation
                          }
                        }
                      }
                    }
                  }
                  JOINT RightHandPinky1
                  {
                    OFFSET -2.866241 1.503904 -0.60527
                    CHANNELS 3 Zrotation Yrotation Xrotation
                    JOINT RightHandPinky2
                    {
                      OFFSET -5.553177 -2e-06 0.0
                      CHANNELS 3 Zrotation Yrotation Xrotation
                      JOINT RightHandPinky3
                      {
                        OFFSET -3.062664 -1e-06 -4e-06
                        CHANNELS 3 Zrotation Yrotation Xrotation
                        JOINT RightHandPinky4
                        {
                          OFFSET -1.546529 2e-06 4e-06
                          CHANNELS 3 Zrotation Yrotation Xrotation
                          JOINT RightHandPinkyEnd
                          {
                            OFFSET -1.952341 0.0 -4e-06
                            CHANNELS 3 Zrotation Yrotation Xrotation
                          }
                        }
                      }
                    }
                  }
                }
              }
            }
          }
        }
      }
    }
    JOINT LeftLeg
    {
      OFFSET -8.443107 2.567604 10.043214
      CHANNELS 3 Zrotation Yrotation Xrotation
      JOINT LeftShin
      {
        OFFSET 43.229198 1e-06 -1e-06
        CHANNELS 3 Zrotation Yrotation Xrotation
        JOINT LeftFoot
        {
          OFFSET 42.298611 1e-06 1e-06
          CHANNELS 3 Zrotation Yrotation Xrotation
          JOINT LeftToeBase
          {
            OFFSET 14.165858 1e-06 0.0
            CHANNELS 3 Zrotation Yrotation Xrotation
            JOINT LeftToeEnd
            {
              OFFSET 6.7141 -0.234461 0.0
              CHANNELS 3 Zrotation Yrotation Xrotation
            }
          }
        }
      }
    }
    JOINT RightLeg
    {
      OFFSET -8.303923 2.592729 -10.047278
      CHANNELS 3 Zrotation Yrotation Xrotation
      JOINT RightShin
      {
        OFFSET -43.369682 0.0 1e-06
        CHANNELS 3 Zrotation Yrotation Xrotation
        JOINT RightFoot
        {
          OFFSET -42.260784 4e-06 2e-06
          CHANNELS 3 Zrotation Yrotation Xrotation
          JOINT RightToeBase
          {
            OFFSET -14.222245 -2e-06 -1e-06
            CHANNELS 3 Zrotation Yrotation Xrotation
            JOINT RightToeEnd
            {
              OFFSET -6.660062 0.232574 -2e-06
              CHANNELS 3 Zrotation Yrotation Xrotation
            }
          }
        }
      }
    }
  }
}
MOTION
Frames: 4
Frame Time: 0.03333333333333333
0.0 0.0 0.0 0.0 -0.0 0.0 -2.102773 99.947433 2.009781 91.28286 0.332193 89.830811 -0.265195 -0.402599 -0.032529 -11.118922 -0.517989 -0.233091 15.762598 -1.392192 -2.804756 19.268448 -0.380442 2.502283 -2.618384 -0.67251 -3.106663 -36.406261 -1.43207 -3.187847 6e-06 -0.0 -0.0 0.01329 -0.039966 -0.209895 -0.04964 -0.051655 -0.223778 -0.042522 -0.036343 -0.190231 -106.993515 -69.406181 124.044693 19.725307 -13.377769 18.862106 56.164448 -0.192856 -0.195183 -3.351325 -0.420491 -1.865977 17.636631 -26.322741 52.411213 -19.466667 -14.3956 29.410398 -2e-06 -8.774823 -1e-06 15.721297 -17.541931 6.107315 -0.609773 -1.795653 -3.889324 -4.807088 -11.046809 -2.937853 5e-06 -20.976021 2e-06 -5.01997 -25.033564 -4.031882 6e-06 -1e-06 -2e-06 -10.634536 -5.686971 -3.565589 10.573277 -17.922955 -3.113899 5e-06 -13.821212 1e-06 -0.501776 -31.181511 -4.027017 -10.819573 -59.207134 7.025583 -13.982715 -7.150196 -2.875039 13.772735 -8.401494 -3.218244 0.347735 -34.211555 0.771657 -0.96303 -17.733372 2.621022 -1e-06 1e-06 -1e-06 -17.346416 -20.095219 -4.201782 21.757563 -1.638376 3.866427 2e-06 -6.338825 2e-06 -1.697587 -22.591751 -6.194006 -0.0 -4e-06 -2e-06 67.932785 -71.09288 130.503021 13.407454 -19.367868 1.76568 51.969513 -1.567713 0.931721 -4.164479 0.149357 -13.947528 22.182106 -20.375889 49.933319 -16.701815 -16.743528 28.476532 -3e-06 -12.690601 0.0 15.646372 -17.511868 2.898676 -0.105921 -1.513856 -4.275882 -5.03904 -5.612873 -2.953557 5e-06 -11.020525 -3e-06 -6.111297 -15.895334 -3.840472 0.0 -1e-06 -1e-06 -10.283369 -5.680291 -4.341838 11.028294 -11.302404 -2.372634 -1.384267 -14.238584 -6.320122 -0.625439 -26.924191 -3.827604 -3.98504 -49.390026 -3.393737 -13.708524 -7.363476 -3.720939 18.14115 -14.052739 -3.242676 7e-06 -18.78727 -5e-06 -0.429711 -8.456045 2.555503 0.0 -0.0 0.0 -15.923534 -20.094482 -5.473586 30.41921 -7.190826 1.735923 3e-06 -8.162925 -1e-06 -1.861903 -22.861469 -6.167943 3e-06 -3e-06 -2e-06 179.384766 -3.470084 -2.646139 9.829668 -0.089436 0.259972 -77.660538 -3.434728 -8.696995 -6.333398 1.386996 2.008764 -0.999999 0.0 -0.0 2.295967 -10.351077 -12.268088 6.635796 0.010724 -0.083076 -75.041832 0.585958 -14.342967 -5.89042 0.773546 1.670789 -1.000002 -0.0 0.0 
0.0 0.0 0.0 0.0 -0.0 0.0 -1.831727 99.918312 2.16033 91.248993 0.407084 89.610405 -0.255563 -0.473356 -0.044376 -11.120905 -0.495248 -0.171217 15.7656 -1.459971 -2.784497 19.436571 -0.411739 2.505861 -2.610424 -0.712612 -3.00746 -36.186954 -1.559843 -3.180178 7e-06 -0.0 -0.0 0.002488 -0.039339 -0.199196 -0.052811 -0.060084 -0.214585 -0.046891 -0.0269 -0.178335 -106.960701 -69.337387 124.130562 19.699842 -13.257654 18.711178 56.026947 -0.234475 -0.142351 -3.022596 -0.380412 -1.888197 17.636623 -26.322727 52.411179 -19.46666 -14.395598 29.410381 -1e-06 -8.774819 -1e-06 15.677176 -17.498112 6.1039 -0.609774 -1.795656 -3.889329 -4.807088 -11.046811 -2.937846 3e-06 -20.976019 0.0 -5.019974 -25.03356 -4.031881 7e-06 -1e-06 -3e-06 -10.634532 -5.686969 -3.565583 10.573271 -17.922947 -3.1139 3e-06 -13.821208 1e-06 -0.501778 -31.181505 -4.027019 -10.757397 -59.299915 7.04943 -13.982712 -7.150201 -2.875039 13.772727 -8.401491 -3.218243 0.347731 -34.211555 0.771654 -0.963031 -17.73337 2.621019 -1e-06 2e-06 0.0 -17.346416 -20.095215 -4.201779 21.757563 -1.638371 3.866425 1e-06 -6.338822 2e-06 -1.69759 -22.591743 -6.194006 -0.0 -4e-06 -2e-06 68.273781 -71.197647 130.193649 13.398186 -19.529158 1.894721 51.977055 -1.507118 0.948187 -4.086187 0.165674 -13.941854 22.182106 -20.375893 49.9333 -16.701815 -16.74353 28.476526 -3e-06 -12.6906 1e-06 15.6582 -17.49782 2.884361 -0.10592 -1.513857 -4.27588 -5.039038 -5.612868 -2.953554 4e-06 -11.020523 -2e-06 -6.111297 -15.895334 -3.84047 0.0 -0.0 -1e-06 -10.283368 -5.680293 -4.341837 11.028292 -11.302406 -2.372633 -1.384267 -14.238579 -6.320119 -0.625439 -26.924187 -3.8276 -3.948821 -49.471077 -3.369412 -13.708523 -7.363479 -3.720937 18.141146 -14.052738 -3.242674 7e-06 -18.787268 -4e-06 -0.429711 -8.456043 2.555503 1e-06 0.0 1e-06 -15.923536 -20.094482 -5.473581 30.41921 -7.190825 1.735924 1e-06 -8.162927 -2e-06 -1.861902 -22.861469 -6.167943 2e-06 -2e-06 -1e-06 179.288712 -3.355436 -2.703094 10.483582 -0.081424 0.314812 -78.13047 -3.50042 -8.616266 -6.40603 1.414894 2.017804 -0.999999 0.0 0.0 2.319253 -10.546274 -12.110192 6.821442 0.016229 -0.087493 -75.018875 0.874066 -14.484508 -5.940405 0.761516 1.670712 -1.000002 1e-06 0.0 
0.0 0.0 0.0 0.0 -0.0 0.0 -1.493497 99.888412 2.349983 91.240532 0.471918 89.36721 -0.276644 -0.574811 -0.055137 -11.142489 -0.488922 -0.135271 15.847386 -1.511261 -2.741896 19.561087 -0.496069 2.529098 -2.63947 -0.721505 -2.962063 -35.928345 -1.636949 -3.131035 7e-06 0.0 0.0 -0.003547 -0.034921 -0.196848 -0.063785 -0.065492 -0.209638 -0.053474 -0.013319 -0.179131 -107.117393 -69.264984 124.41748 19.584139 -13.069577 18.676119 56.199593 -0.266831 -0.13827 -2.765634 -0.399691 -2.25594 17.636629 -26.322727 52.411194 -19.46666 -14.3956 29.410389 -1e-06 -8.774822 -2e-06 15.667966 -17.48962 6.095 -0.609777 -1.795654 -3.889328 -4.807089 -11.04681 -2.93785 7e-06 -20.976011 -2e-06 -5.019969 -25.033554 -4.031883 6e-06 1e-06 -1e-06 -10.634532 -5.686968 -3.565589 10.573274 -17.922947 -3.113898 4e-06 -13.821206 1e-06 -0.501777 -31.181501 -4.027015 -10.727736 -59.31966 7.052803 -13.982716 -7.150199 -2.875042 13.77273 -8.401489 -3.218239 0.347735 -34.21154 0.771653 -0.963029 -17.733366 2.621023 -1e-06 0.0 0.0 -17.346422 -20.095215 -4.201782 21.757563 -1.638377 3.866431 3e-06 -6.338821 2e-06 -1.697587 -22.591742 -6.194008 -0.0 -4e-06 -4e-06 68.41777 -71.266281 130.097534 13.367515 -19.535326 2.203728 52.101242 -1.385845 0.96885 -4.084509 0.16226 -14.133216 22.182106 -20.375889 49.933319 -16.701817 -16.74353 28.476534 -3e-06 -12.690603 0.0 15.630683 -17.446608 2.90253 -0.105919 -1.513858 -4.275881 -5.039041 -5.612867 -2.953556 3e-06 -11.020524 -2e-06 -6.1113 -15.895334 -3.84047 0.0 0.0 0.0 -10.283366 -5.680288 -4.341836 11.028293 -11.302402 -2.372636 -1.384269 -14.238581 -6.32012 -0.625438 -26.924187 -3.827602 -3.927201 -49.49086 -3.323838 -13.708526 -7.363473 -3.720937 18.14115 -14.052741 -3.242677 8e-06 -18.78727 -5e-06 -0.429711 -8.456043 2.555504 0.0 0.0 -0.0 -15.923532 -20.094482 -5.473583 30.41921 -7.190824 1.735923 1e-06 -8.162925 -0.0 -1.861902 -22.861467 -6.167942 2e-06 -3e-06 -1e-06 179.23735 -3.159746 -2.81725 11.082603 -0.086344 0.340594 -78.593895 -3.592395 -8.45 -6.44967 1.419998 2.02424 -0.999999 -0.0 0.0 2.301695 -10.807734 -11.960126 7.059718 0.01859 -0.082038 -74.988564 1.17903 -14.71218 -5.965184 0.764564 1.671849 -1.000001 -0.0 -0.0 
0.0 0.0 0.0 0.0 -0.0 0.0 -1.116433 99.863472 2.486765 91.234215 0.533563 89.115715 -0.279988 -0.698618 -0.060359 -11.162088 -0.47964 -0.111386 15.924144 -1.538877 -2.693801 19.654539 -0.624102 2.541938 -2.664159 -0.722901 -2.863253 -35.743607 -1.666915 -3.08381 7e-06 0.0 -0.0 -0.007005 -0.032788 -0.198411 -0.080032 -0.070179 -0.209514 -0.064111 -0.005111 -0.183037 -107.160576 -69.1791 124.571083 19.498508 -13.002727 18.734066 56.566208 -0.293323 -0.145641 -2.588248 -0.373447 -2.663028 17.636623 -26.322731 52.411182 -19.466658 -14.395598 29.410385 1e-06 -8.774822 -2e-06 15.661715 -17.496538 6.086385 -0.609776 -1.795651 -3.889324 -4.807087 -11.04681 -2.937848 4e-06 -20.976015 -2e-06 -5.019971 -25.033556 -4.031882 6e-06 0.0 -1e-06 -10.634531 -5.686969 -3.565584 10.573271 -17.922945 -3.113902 3e-06 -13.821206 1e-06 -0.501779 -31.181498 -4.027014 -10.719644 -59.318569 7.063818 -13.982713 -7.150196 -2.87504 13.772729 -8.401489 -3.218239 0.347731 -34.211544 0.771656 -0.963029 -17.733366 2.621021 -1e-06 1e-06 1e-06 -17.346415 -20.095213 -4.201778 21.757557 -1.638374 3.866426 1e-06 -6.338822 2e-06 -1.69759 -22.591743 -6.194004 0.0 -4e-06 -3e-06 68.623024 -71.335007 129.915405 13.352126 -19.531658 2.694265 52.294044 -1.232128 0.989897 -4.083858 0.057902 -14.359857 22.182104 -20.375887 49.933308 -16.701805 -16.74353 28.47653 -3e-06 -12.690598 2e-06 15.625574 -17.437695 2.922804 -0.105919 -1.513856 -4.275882 -5.039041 -5.612867 -2.953554 5e-06 -11.02052 -1e-06 -6.111299 -15.895329 -3.840468 0.0 -0.0 -1e-06 -10.283369 -5.680288 -4.341838 11.028291 -11.302399 -2.372632 -1.384267 -14.238577 -6.32012 -0.62544 -26.924179 -3.827602 -3.950096 -49.518536 -3.284357 -13.708524 -7.363473 -3.720938 18.141146 -14.052738 -3.242677 7e-06 -18.787266 -3e-06 -0.42971 -8.45604 2.555504 0.0 -0.0 0.0 -15.923534 -20.094479 -5.473584 30.41921 -7.190822 1.735923 1e-06 -8.162922 1e-06 -1.861904 -22.861464 -6.167939 2e-06 -3e-06 -2e-06 179.165833 -2.927725 -2.958817 11.651311 -0.097037 0.350438 -79.003571 -3.75217 -8.277781 -6.470507 1.412953 2.023976 -0.999999 -0.0 0.0 2.177824 -11.116093 -11.701012 7.487457 0.014968 -0.074882 -74.949051 1.431111 -14.95577 -6.01436 0.767837 1.670336 -1.000003 1e-06 -0.0 
